<svg width="214" height="116" viewBox="0 0 214 116" fill="none" xmlns="http://www.w3.org/2000/svg">
<path d="M58 48.275L80.5 114L95.5 65.5L80.5 9.5533C79 4.45834 75.1 -3.6936 71.5 4.45834C68.7 13.4255 61.3333 37.4058 58 48.275Z" fill="url(#paint0_linear_2_8)" stroke="white" stroke-width="0.1"/>
<path d="M197 115H163C174.2 95.8 179.333 69 180.5 58H213.5C207.5 97.5 198.5 110.5 197 115Z" fill="url(#paint1_linear_2_8)" stroke="white" stroke-width="0.1"/>
<path d="M1 115.5L35.5 1H70.5L35.5 115.5H1Z" fill="url(#paint2_linear_2_8)" stroke="white" stroke-width="0.1"/>
<path d="M116.5 1L82 115.5H116.5L151.5 1H116.5Z" fill="url(#paint3_linear_2_8)" stroke="white" stroke-width="0.1"/>
<path d="M139 47.3574L161.5 113.5C169.5 101 175 78 177.5 65.5C174.167 53.1667 165.1 22.4574 161.5 8.85738C156.7 -4.34262 152.833 2.02405 151.5 6.85738L139 47.3574Z" fill="url(#paint4_linear_2_8)" stroke="white" stroke-width="0.1"/>
<defs>
<linearGradient id="paint0_linear_2_8" x1="77.0588" y1="2.48035" x2="67.4698" y2="113.196" gradientUnits="userSpaceOnUse">
<stop stop-color="#7864FA"/>
<stop offset="0.391" stop-color="#3791FA"/>
<stop offset="1" stop-color="white"/>
</linearGradient>
<linearGradient id="paint1_linear_2_8" x1="188.666" y1="58.7467" x2="186.842" y2="114.954" gradientUnits="userSpaceOnUse">
<stop stop-color="#7864FA"/>
<stop offset="0.391" stop-color="#3791FA"/>
<stop offset="1" stop-color="white"/>
</linearGradient>
<linearGradient id="paint2_linear_2_8" x1="36.3224" y1="2.5" x2="30.9823" y2="115.274" gradientUnits="userSpaceOnUse">
<stop stop-color="#7864FA"/>
<stop offset="0.391" stop-color="#3791FA"/>
<stop offset="1" stop-color="white"/>
</linearGradient>
<linearGradient id="paint3_linear_2_8" x1="117.322" y1="2.5" x2="111.982" y2="115.274" gradientUnits="userSpaceOnUse">
<stop stop-color="#7864FA"/>
<stop offset="0.391" stop-color="#3791FA"/>
<stop offset="1" stop-color="white"/>
</linearGradient>
<linearGradient id="paint4_linear_2_8" x1="158.567" y1="2.4738" x2="149.305" y2="112.749" gradientUnits="userSpaceOnUse">
<stop stop-color="#7864FA"/>
<stop offset="0.391" stop-color="#3791FA"/>
<stop offset="1" stop-color="white"/>
</linearGradient>
</defs>
</svg>
